# xmcd
#
# Track frame offsets:
#  150
#  37860
#  57343
#  88963
#  111121
#  139912
#  157571
#  184094
#  206526
#  230535
#  260707
#  281276
#  311711
#
# Disc length: 4380 seconds
#
# Revision: 0
# Processed by: cddbd v1.5.1PL0 Copyright (c) Steve Scherf et al.
# Submitted via: Collectorz.com Music Collector 6.9
#
DISCID=b1111a0d
DTITLE=joe ely - Live At Union Station, June 28th 1996 - Disc 1
DYEAR=1996
DGENRE=
TTITLE0=Gallo Del Cielo
TTITLE1=Ranches and Rivers
TTITLE2=Behind The Bamboo Shade
TTITLE3=The Road Goes On Forever
TTITLE4=Boxcars
TTITLE5=St Valentine
TTITLE6=Where Is My Love
TTITLE7=Whenever Kindness Fails
TTITLE8=Run Preciosa
TTITLE9=Letter To Laredo
TTITLE10=Gangster Of Love
TTITLE11=Jesse's Blues
TTITLE12=Me and Billy The Kid
EXTD=
EXTT0=
EXTT1=
EXTT2=
EXTT3=
EXTT4=
EXTT5=
EXTT6=
EXTT7=
EXTT8=
EXTT9=
EXTT10=
EXTT11=
EXTT12=
PLAYORDER=
